{
	"asset":{
		"generator":"Khronos glTF Blender I/O v3.5.30",
		"version":"2.0"
	},
	"extensionsUsed":[
		"KHR_materials_specular",
		"KHR_materials_ior"
	],
	"scene":0,
	"scenes":[
		{
			"name":"Scene",
			"nodes":[
				0
			]
		}
	],
	"nodes":[
		{
			"mesh":0,
			"name":"\u6863\u6848\u76d2"
		}
	],
	"materials":[
		{
			"doubleSided":true,
			"extensions":{
				"KHR_materials_specular":{
					"specularColorFactor":[
						0,
						0,
						0
					]
				},
				"KHR_materials_ior":{
					"ior":1.4500000476837158
				}
			},
			"name":"002",
			"pbrMetallicRoughness":{
				"baseColorTexture":{
					"index":0
				},
				"roughnessFactor":0.858578622341156
			}
		},
		{
			"doubleSided":true,
			"extensions":{
				"KHR_materials_specular":{
					"specularColorFactor":[
						0,
						0,
						0
					]
				},
				"KHR_materials_ior":{
					"ior":1.4500000476837158
				}
			},
			"name":"003",
			"pbrMetallicRoughness":{
				"baseColorTexture":{
					"index":1
				},
				"roughnessFactor":0.858578622341156
			}
		},
		{
			"doubleSided":true,
			"extensions":{
				"KHR_materials_specular":{
					"specularColorFactor":[
						0,
						0,
						0
					]
				},
				"KHR_materials_ior":{
					"ior":1.4500000476837158
				}
			},
			"name":"004",
			"pbrMetallicRoughness":{
				"baseColorTexture":{
					"index":2
				},
				"roughnessFactor":0.858578622341156
			}
		}
	],
	"meshes":[
		{
			"name":"\u7f51\u683c",
			"primitives":[
				{
					"attributes":{
						"POSITION":0,
						"TEXCOORD_0":1,
						"NORMAL":2
					},
					"indices":3,
					"material":0
				},
				{
					"attributes":{
						"POSITION":4,
						"TEXCOORD_0":5,
						"NORMAL":6
					},
					"indices":7,
					"material":1
				},
				{
					"attributes":{
						"POSITION":8,
						"TEXCOORD_0":9,
						"NORMAL":10
					},
					"indices":11,
					"material":2
				}
			]
		}
	],
	"textures":[
		{
			"sampler":0,
			"source":0
		},
		{
			"sampler":0,
			"source":1
		},
		{
			"sampler":0,
			"source":2
		}
	],
	"images":[
		{
			"bufferView":4,
			"mimeType":"image/jpeg",
			"name":"002"
		},
		{
			"bufferView":9,
			"mimeType":"image/jpeg",
			"name":"003"
		},
		{
			"bufferView":14,
			"mimeType":"image/jpeg",
			"name":"004"
		}
	],
	"accessors":[
		{
			"bufferView":0,
			"componentType":5126,
			"count":16,
			"max":[
				0.029999999329447746,
				0.3100000023841858,
				0.10999999940395355
			],
			"min":[
				-0.029999999329447746,
				0,
				-0.10999999940395355
			],
			"type":"VEC3"
		},
		{
			"bufferView":1,
			"componentType":5126,
			"count":16,
			"type":"VEC2"
		},
		{
			"bufferView":2,
			"componentType":5126,
			"count":16,
			"type":"VEC3"
		},
		{
			"bufferView":3,
			"componentType":5123,
			"count":24,
			"type":"SCALAR"
		},
		{
			"bufferView":5,
			"componentType":5126,
			"count":4,
			"max":[
				0.029999999329447746,
				0.3100000023841858,
				0.10999999940395355
			],
			"min":[
				0.029999999329447746,
				0,
				-0.10999999940395355
			],
			"type":"VEC3"
		},
		{
			"bufferView":6,
			"componentType":5126,
			"count":4,
			"type":"VEC2"
		},
		{
			"bufferView":7,
			"componentType":5126,
			"count":4,
			"type":"VEC3"
		},
		{
			"bufferView":8,
			"componentType":5123,
			"count":6,
			"type":"SCALAR"
		},
		{
			"bufferView":10,
			"componentType":5126,
			"count":4,
			"max":[
				0.029999999329447746,
				0.3100000023841858,
				0.10999999940395355
			],
			"min":[
				-0.029999999329447746,
				0,
				0.10999999940395355
			],
			"type":"VEC3"
		},
		{
			"bufferView":11,
			"componentType":5126,
			"count":4,
			"type":"VEC2"
		},
		{
			"bufferView":12,
			"componentType":5126,
			"count":4,
			"type":"VEC3"
		},
		{
			"bufferView":13,
			"componentType":5123,
			"count":6,
			"type":"SCALAR"
		}
	],
	"bufferViews":[
		{
			"buffer":0,
			"byteLength":192,
			"byteOffset":0,
			"target":34962
		},
		{
			"buffer":0,
			"byteLength":128,
			"byteOffset":192,
			"target":34962
		},
		{
			"buffer":0,
			"byteLength":192,
			"byteOffset":320,
			"target":34962
		},
		{
			"buffer":0,
			"byteLength":48,
			"byteOffset":512,
			"target":34963
		},
		{
			"buffer":0,
			"byteLength":78717,
			"byteOffset":560
		},
		{
			"buffer":0,
			"byteLength":48,
			"byteOffset":79280,
			"target":34962
		},
		{
			"buffer":0,
			"byteLength":32,
			"byteOffset":79328,
			"target":34962
		},
		{
			"buffer":0,
			"byteLength":48,
			"byteOffset":79360,
			"target":34962
		},
		{
			"buffer":0,
			"byteLength":12,
			"byteOffset":79408,
			"target":34963
		},
		{
			"buffer":0,
			"byteLength":52181,
			"byteOffset":79420
		},
		{
			"buffer":0,
			"byteLength":48,
			"byteOffset":131604,
			"target":34962
		},
		{
			"buffer":0,
			"byteLength":32,
			"byteOffset":131652,
			"target":34962
		},
		{
			"buffer":0,
			"byteLength":48,
			"byteOffset":131684,
			"target":34962
		},
		{
			"buffer":0,
			"byteLength":12,
			"byteOffset":131732,
			"target":34963
		},
		{
			"buffer":0,
			"byteLength":29626,
			"byteOffset":131744
		}
	],
	"samplers":[
		{
			"magFilter":9729,
			"minFilter":9987
		}
	],
	"buffers":[
		{
			"byteLength":161372,
			"uri":"data:application/octet-stream;base64,"
		}
	]
}
